# xmcd CD database file
#
# Track frame offsets:
#	151
#	19934
#	32158
#	47518
#	60137
#	73013
#	86836
#	98899
#	111299
#	122718
#	135632
#	146977
#	161547
#	175342
#	189210
#	204624
#	217385
#	233850
#	247705
#	258396
#
# Disc length: 3616 seconds
#
# Revision: 0
# Processed by: cddbd v1.5.1PL2 Copyright (c) Steve Scherf et al.
# Submitted via: CDex 1.51
#
DISCID=220e1e14
DTITLE=Various Artist - History of Jazz
DYEAR=1938
DGENRE=Jazz
TTITLE0=DON'T BE THAT WAY (Sampson-Goodman-Parish) Benny Goodman and His Orchestra - Jan 16
TTITLE1=JA DA (Carleton) Eddie Condon and His Windy City Seven - Jan 17
TTITLE2=RING DEM BELLS (Ellington-Mills) Lionel Hampton and His Orchestra - Jan 18
TTITLE3=MORE RAIN, MORE REST (Smith-Williams) Jabbo Smith and His Orchestra - Feb 1
TTITLE4=THE FLAT FOOT FLOOGIE (Gaillard-Stewart) Slim and Slam - Feb 17
TTITLE5=OLD MAN BEN (Page) Hot Lips Page and His Band - Mar 10
TTITLE6=A-TISKET A-TASKET (Feldman-Fitzgerald) Ella Fitzgerald with Chick Webb and His Orchestra - May 2
TTITLE7=WHEN THE SAINTS GO MARCHING IN (Traditional) Louis Armstrong and His Orchestra - May 13
TTITLE8=ROSIE THE REDSKIN (Stillman-Jacobs) Midge Williams and Her Jazz Jesters - Jun 10
TTITLE9=MY OWN BLUES (Chittison) Herman Chittison, piano solos - Jun 13
TTITLE10=THE SHEIK OF ARABY (Smith-Wheeler-Snyder) Tommy Dorsey and His Clambake Seven - Jul 15
TTITLE11=BEGIN THE BEGUINE (Porter) Artie Shaw and His Orchestra - Jul 24
TTITLE12=PRELUDE TO A KISS (Mills-Gordon-Ellington) Duke Ellington and His Famous Orchestra - Aug 9
TTITLE13=JUMPIN' AT THE WOODSIDE (Basie) Count Basie and His Orchestra - Aug 22
TTITLE14=SOBBIN' BLUES (Kassell-Berton) Les Brown and His Orchestra - Oct 28
TTITLE15=THE FIVES (Jones-Williams) Count Basie and His Rhythm Session - Nov 9
TTITLE16=REALLY THE BLUES (Mezzrow) Tommy Ladnier and His Orchestra - Nov 28
TTITLE17=MARY'S IDEA (Williams) Andy Kirk and His Twelve Clouds Of Joy - Dec 6
TTITLE18=MARGIE (Conrad-Robinson) Don Redman and His Orchestra - Dec 6
TTITLE19=ROLL 'EM PETE (Johnson-Turner) Joe Turner acc by Pete Johnson - Dec 30
EXTD=YEAR: 1938
EXTT0=
EXTT1=
EXTT2=
EXTT3=
EXTT4=
EXTT5=
EXTT6=
EXTT7=
EXTT8=
EXTT9=
EXTT10=
EXTT11=
EXTT12=
EXTT13=
EXTT14=
EXTT15=
EXTT16=
EXTT17=
EXTT18=
EXTT19=
PLAYORDER=
